<svg data-v-423bf9ae="" xmlns="http://www.w3.org/2000/svg" viewBox="0 0 577.559805988877 60" class="font"><!----><!----><!----><g data-v-423bf9ae="" id="7126659b-c0b9-47ab-9540-d0aef9906e11" fill="black" transform="matrix(4.784689009770447,0,0,4.784689009770447,-5.023918284727472,-10.382775993081829)"><path d="M1.05 12.29L1.05 2.69L4.75 2.69L4.75 2.69Q7.01 2.69 8.25 3.88L8.25 3.88L8.25 3.88Q9.48 5.07 9.48 7.49L9.48 7.49L9.48 7.49Q9.48 9.91 8.25 11.10L8.25 11.10L8.25 11.10Q7.01 12.29 4.75 12.29L4.75 12.29L1.05 12.29ZM2.60 10.96L4.75 10.96L4.75 10.96Q6.27 10.96 7.08 10.14L7.08 10.14L7.08 10.14Q7.88 9.32 7.88 7.57L7.88 7.57L7.88 7.42L7.88 7.42Q7.88 5.66 7.08 4.84L7.08 4.84L7.08 4.84Q6.27 4.02 4.75 4.02L4.75 4.02L2.60 4.02L2.60 10.96ZM12.96 12.46L12.96 12.46Q12.05 12.46 11.32 12.01L11.32 12.01L11.32 12.01Q10.58 11.56 10.58 10.39L10.58 10.39L10.58 10.39Q10.58 8.97 11.82 8.43L11.82 8.43L11.82 8.43Q13.05 7.88 15.34 7.88L15.34 7.88L15.34 7.15L15.34 7.15Q15.34 6.55 15.03 6.24L15.03 6.24L15.03 6.24Q14.71 5.92 13.86 5.92L13.86 5.92L13.86 5.92Q13.03 5.92 12.69 6.22L12.69 6.22L12.69 6.22Q12.35 6.51 12.35 6.93L12.35 6.93L12.35 7.11L10.95 7.11L10.95 7.11Q10.93 7.03 10.93 6.80L10.93 6.80L10.93 6.80Q10.93 5.84 11.75 5.30L11.75 5.30L11.75 5.30Q12.56 4.76 13.92 4.76L13.92 4.76L13.92 4.76Q15.34 4.76 16.07 5.35L16.07 5.35L16.07 5.35Q16.79 5.94 16.79 7.01L16.79 7.01L16.79 10.78L16.79 10.78Q16.79 11.03 16.93 11.15L16.93 11.15L16.93 11.15Q17.07 11.27 17.28 11.27L17.28 11.27L17.78 11.27L17.78 12.24L17.78 12.24Q17.42 12.42 16.79 12.42L16.79 12.42L16.79 12.42Q16.28 12.42 15.94 12.14L15.94 12.14L15.94 12.14Q15.60 11.87 15.48 11.40L15.48 11.40L15.39 11.40L15.39 11.40Q14.99 11.90 14.39 12.18L14.39 12.18L14.39 12.18Q13.78 12.46 12.96 12.46L12.96 12.46ZM13.38 11.28L13.38 11.28Q14.21 11.28 14.78 10.79L14.78 10.79L14.78 10.79Q15.34 10.29 15.34 9.42L15.34 9.42L15.34 8.97L15.34 8.97Q13.75 8.97 12.91 9.25L12.91 9.25L12.91 9.25Q12.07 9.52 12.07 10.28L12.07 10.28L12.07 10.28Q12.07 10.79 12.40 11.04L12.40 11.04L12.40 11.04Q12.73 11.28 13.38 11.28L13.38 11.28ZM18.84 12.29L18.84 4.93L20.01 4.93L20.15 5.91L20.24 5.91L20.24 5.91Q20.64 5.35 21.26 5.05L21.26 5.05L21.26 5.05Q21.88 4.76 22.67 4.76L22.67 4.76L22.67 4.76Q25.00 4.76 25.00 7.29L25.00 7.29L25.00 12.29L23.56 12.29L23.56 7.48L23.56 7.48Q23.56 6.65 23.19 6.32L23.19 6.32L23.19 6.32Q22.82 5.99 22.11 5.99L22.11 5.99L22.11 5.99Q21.62 5.99 21.20 6.24L21.20 6.24L21.20 6.24Q20.78 6.48 20.53 6.93L20.53 6.93L20.53 6.93Q20.29 7.38 20.29 7.97L20.29 7.97L20.29 12.29L18.84 12.29ZM30.86 12.29L30.86 2.69L34.55 2.69L34.55 2.69Q36.82 2.69 38.05 3.88L38.05 3.88L38.05 3.88Q39.28 5.07 39.28 7.49L39.28 7.49L39.28 7.49Q39.28 9.91 38.05 11.10L38.05 11.10L38.05 11.10Q36.82 12.29 34.55 12.29L34.55 12.29L30.86 12.29ZM32.41 10.96L34.55 10.96L34.55 10.96Q36.08 10.96 36.88 10.14L36.88 10.14L36.88 10.14Q37.69 9.32 37.69 7.57L37.69 7.57L37.69 7.42L37.69 7.42Q37.69 5.66 36.88 4.84L36.88 4.84L36.88 4.84Q36.08 4.02 34.55 4.02L34.55 4.02L32.41 4.02L32.41 10.96ZM43.96 12.46L43.96 12.46Q42.18 12.46 41.31 11.52L41.31 11.52L41.31 11.52Q40.45 10.58 40.45 8.61L40.45 8.61L40.45 8.61Q40.45 6.64 41.31 5.70L41.31 5.70L41.31 5.70Q42.18 4.76 43.96 4.76L43.96 4.76L43.96 4.76Q45.57 4.76 46.37 5.63L46.37 5.63L46.37 5.63Q47.17 6.51 47.17 8.41L47.17 8.41L47.17 8.97L41.93 8.97L41.93 8.97Q41.99 10.16 42.47 10.73L42.47 10.73L42.47 10.73Q42.95 11.30 43.97 11.30L43.97 11.30L43.97 11.30Q44.77 11.30 45.26 10.92L45.26 10.92L45.26 10.92Q45.75 10.54 45.75 9.76L45.75 9.76L47.17 9.76L47.17 9.76Q47.17 11.07 46.28 11.77L46.28 11.77L46.28 11.77Q45.39 12.46 43.96 12.46L43.96 12.46ZM41.96 7.88L45.67 7.88L45.67 7.88Q45.67 5.92 43.96 5.92L43.96 5.92L43.96 5.92Q43.01 5.92 42.53 6.39L42.53 6.39L42.53 6.39Q42.06 6.86 41.96 7.88L41.96 7.88ZM50.58 12.29L47.87 4.93L49.38 4.93L50.64 8.46L50.64 8.46Q50.81 8.92 51.03 9.70L51.03 9.70L51.03 9.70Q51.25 10.49 51.32 10.74L51.32 10.74L51.39 10.74L51.39 10.74Q51.46 10.50 51.68 9.74L51.68 9.74L51.68 9.74Q51.90 8.97 52.08 8.46L52.08 8.46L53.33 4.93L54.77 4.93L52.05 12.29L50.58 12.29ZM58.98 12.46L58.98 12.46Q57.20 12.46 56.34 11.52L56.34 11.52L56.34 11.52Q55.47 10.58 55.47 8.61L55.47 8.61L55.47 8.61Q55.47 6.64 56.34 5.70L56.34 5.70L56.34 5.70Q57.20 4.76 58.98 4.76L58.98 4.76L58.98 4.76Q60.59 4.76 61.39 5.63L61.39 5.63L61.39 5.63Q62.19 6.51 62.19 8.41L62.19 8.41L62.19 8.97L56.95 8.97L56.95 8.97Q57.01 10.16 57.49 10.73L57.49 10.73L57.49 10.73Q57.97 11.30 59.00 11.30L59.00 11.30L59.00 11.30Q59.79 11.30 60.28 10.92L60.28 10.92L60.28 10.92Q60.77 10.54 60.77 9.76L60.77 9.76L62.19 9.76L62.19 9.76Q62.19 11.07 61.30 11.77L61.30 11.77L61.30 11.77Q60.41 12.46 58.98 12.46L58.98 12.46ZM56.98 7.88L60.69 7.88L60.69 7.88Q60.69 5.92 58.98 5.92L58.98 5.92L58.98 5.92Q58.03 5.92 57.55 6.39L57.55 6.39L57.55 6.39Q57.08 6.86 56.98 7.88L56.98 7.88ZM63.67 12.29L63.67 2.17L65.11 2.17L65.11 12.29L63.67 12.29ZM70.07 12.46L70.07 12.46Q68.32 12.46 67.45 11.52L67.45 11.52L67.45 11.52Q66.57 10.57 66.57 8.61L66.57 8.61L66.57 8.61Q66.57 6.65 67.45 5.71L67.45 5.71L67.45 5.71Q68.32 4.76 70.07 4.76L70.07 4.76L70.07 4.76Q71.82 4.76 72.70 5.71L72.70 5.71L72.70 5.71Q73.58 6.65 73.58 8.61L73.58 8.61L73.58 8.61Q73.58 10.57 72.70 11.52L72.70 11.52L72.70 11.52Q71.82 12.46 70.07 12.46L70.07 12.46ZM70.07 11.27L70.07 11.27Q71.13 11.27 71.62 10.65L71.62 10.65L71.62 10.65Q72.10 10.02 72.10 8.68L72.10 8.68L72.10 8.54L72.10 8.54Q72.10 7.20 71.62 6.57L71.62 6.57L71.62 6.57Q71.13 5.95 70.07 5.95L70.07 5.95L70.07 5.95Q69.02 5.95 68.54 6.57L68.54 6.57L68.54 6.57Q68.05 7.20 68.05 8.54L68.05 8.54L68.05 8.68L68.05 8.68Q68.05 10.02 68.54 10.65L68.54 10.65L68.54 10.65Q69.02 11.27 70.07 11.27L70.07 11.27ZM75.04 14.71L75.04 4.93L76.19 4.93L76.33 5.91L76.43 5.91L76.43 5.91Q76.78 5.35 77.37 5.05L77.37 5.05L77.37 5.05Q77.97 4.76 78.69 4.76L78.69 4.76L78.69 4.76Q80.09 4.76 80.85 5.71L80.85 5.71L80.85 5.71Q81.61 6.65 81.61 8.61L81.61 8.61L81.61 8.61Q81.61 10.54 80.85 11.50L80.85 11.50L80.85 11.50Q80.09 12.46 78.79 12.46L78.79 12.46L78.79 12.46Q77.27 12.46 76.57 11.45L76.57 11.45L76.48 11.45L76.48 14.71L75.04 14.71ZM78.29 11.24L78.29 11.24Q79.28 11.24 79.70 10.65L79.70 10.65L79.70 10.65Q80.12 10.07 80.12 8.69L80.12 8.69L80.12 8.57L80.12 8.57Q80.12 7.17 79.70 6.57L79.70 6.57L79.70 6.57Q79.28 5.98 78.29 5.98L78.29 5.98L78.29 5.98Q77.35 5.98 76.92 6.64L76.92 6.64L76.92 6.64Q76.48 7.29 76.48 8.57L76.48 8.57L76.48 8.68L76.48 8.68Q76.48 9.94 76.92 10.59L76.92 10.59L76.92 10.59Q77.35 11.24 78.29 11.24L78.29 11.24ZM85.71 12.46L85.71 12.46Q84.20 12.46 83.41 11.83L83.41 11.83L83.41 11.83Q82.61 11.20 82.61 10.25L82.61 10.25L82.61 10.25Q82.61 10.09 82.62 10.04L82.62 10.04L82.62 10.04Q82.63 10.00 82.63 9.98L82.63 9.98L84.04 9.98L84.04 10.11L84.04 10.11Q84.04 10.71 84.53 11.01L84.53 11.01L84.53 11.01Q85.02 11.31 85.78 11.31L85.78 11.31L85.78 11.31Q86.45 11.31 86.91 11.06L86.91 11.06L86.91 11.06Q87.36 10.81 87.36 10.35L87.36 10.35L87.36 10.35Q87.36 9.98 87.11 9.75L87.11 9.75L87.11 9.75Q86.86 9.52 86.49 9.39L86.49 9.39L86.49 9.39Q86.13 9.25 85.44 9.07L85.44 9.07L85.44 9.07Q84.60 8.86 84.07 8.65L84.07 8.65L84.07 8.65Q83.54 8.44 83.17 8.02L83.17 8.02L83.17 8.02Q82.80 7.60 82.80 6.90L82.80 6.90L82.80 6.90Q82.80 5.89 83.62 5.33L83.62 5.33L83.62 5.33Q84.45 4.76 85.82 4.76L85.82 4.76L85.82 4.76Q86.67 4.76 87.31 5.02L87.31 5.02L87.31 5.02Q87.95 5.28 88.29 5.74L88.29 5.74L88.29 5.74Q88.63 6.20 88.63 6.78L88.63 6.78L88.62 7.06L87.21 7.06L87.21 6.96L87.21 6.96Q87.21 6.50 86.84 6.21L86.84 6.21L86.84 6.21Q86.46 5.92 85.69 5.92L85.69 5.92L85.69 5.92Q84.95 5.92 84.61 6.18L84.61 6.18L84.61 6.18Q84.27 6.44 84.27 6.79L84.27 6.79L84.27 6.79Q84.27 7.22 84.69 7.43L84.69 7.43L84.69 7.43Q85.11 7.64 86.02 7.85L86.02 7.85L86.02 7.85Q86.90 8.06 87.46 8.28L87.46 8.28L87.46 8.28Q88.02 8.50 88.42 8.95L88.42 8.95L88.42 8.95Q88.83 9.41 88.83 10.16L88.83 10.16L88.83 10.16Q88.83 11.34 87.98 11.90L87.98 11.90L87.98 11.90Q87.14 12.46 85.71 12.46L85.71 12.46ZM96.05 12.29L93.35 2.69L94.99 2.69L96.75 9.20L96.75 9.20Q96.85 9.58 96.94 10.02L96.94 10.02L96.94 10.02Q97.03 10.46 97.08 10.63L97.08 10.63L97.15 10.63L97.41 9.20L98.87 2.69L100.94 2.69L102.44 9.20L102.44 9.20Q102.52 9.60 102.61 10.03L102.61 10.03L102.61 10.03Q102.69 10.46 102.72 10.63L102.72 10.63L102.79 10.63L102.79 10.63Q102.83 10.46 102.92 10.02L102.92 10.02L102.92 10.02Q103.01 9.58 103.11 9.20L103.11 9.20L104.85 2.69L106.34 2.69L103.64 12.29L101.70 12.29L100.16 5.74L100.16 5.74Q100.07 5.38 99.98 4.89L99.98 4.89L99.98 4.89Q99.89 4.40 99.86 4.24L99.86 4.24L99.79 4.24L99.79 4.24Q99.76 4.41 99.68 4.92L99.68 4.92L99.68 4.92Q99.60 5.43 99.53 5.74L99.53 5.74L98.00 12.29L96.05 12.29ZM110.50 12.46L110.50 12.46Q108.72 12.46 107.86 11.52L107.86 11.52L107.86 11.52Q106.99 10.58 106.99 8.61L106.99 8.61L106.99 8.61Q106.99 6.64 107.86 5.70L107.86 5.70L107.86 5.70Q108.72 4.76 110.50 4.76L110.50 4.76L110.50 4.76Q112.11 4.76 112.91 5.63L112.91 5.63L112.91 5.63Q113.71 6.51 113.71 8.41L113.71 8.41L113.71 8.97L108.47 8.97L108.47 8.97Q108.53 10.16 109.01 10.73L109.01 10.73L109.01 10.73Q109.49 11.30 110.52 11.30L110.52 11.30L110.52 11.30Q111.31 11.30 111.80 10.92L111.80 10.92L111.80 10.92Q112.29 10.54 112.29 9.76L112.29 9.76L113.71 9.76L113.71 9.76Q113.71 11.07 112.82 11.77L112.82 11.77L112.82 11.77Q111.93 12.46 110.50 12.46L110.50 12.46ZM108.50 7.88L112.21 7.88L112.21 7.88Q112.21 5.92 110.50 5.92L110.50 5.92L110.50 5.92Q109.55 5.92 109.07 6.39L109.07 6.39L109.07 6.39Q108.60 6.86 108.50 7.88L108.50 7.88ZM118.85 12.46L118.85 12.46Q118.12 12.46 117.52 12.17L117.52 12.17L117.52 12.17Q116.93 11.87 116.58 11.31L116.58 11.31L116.48 11.31L116.34 12.29L115.19 12.29L115.19 2.17L116.63 2.17L116.63 5.77L116.72 5.77L116.72 5.77Q117.42 4.76 118.94 4.76L118.94 4.76L118.94 4.76Q120.25 4.76 121.00 5.72L121.00 5.72L121.00 5.72Q121.76 6.68 121.76 8.61L121.76 8.61L121.76 8.61Q121.76 10.57 121.00 11.52L121.00 11.52L121.00 11.52Q120.25 12.46 118.85 12.46L118.85 12.46ZM118.44 11.24L118.44 11.24Q119.43 11.24 119.85 10.65L119.85 10.65L119.85 10.65Q120.27 10.07 120.27 8.69L120.27 8.69L120.27 8.57L120.27 8.57Q120.27 7.17 119.85 6.57L119.85 6.57L119.85 6.57Q119.43 5.98 118.44 5.98L118.44 5.98L118.44 5.98Q117.50 5.98 117.07 6.64L117.07 6.64L117.07 6.64Q116.63 7.29 116.63 8.58L116.63 8.58L116.63 8.69L116.63 8.69Q116.63 9.95 117.07 10.60L117.07 10.60L117.07 10.60Q117.50 11.24 118.44 11.24L118.44 11.24Z"></path></g><!----><!----></svg>