<?xml version="1.0" encoding="UTF-8" standalone="no" ?>
<!DOCTYPE svg PUBLIC "-//W3C//DTD SVG 1.1//EN" "http://www.w3.org/Graphics/SVG/1.1/DTD/svg11.dtd">
<svg xmlns="http://www.w3.org/2000/svg" xmlns:xlink="http://www.w3.org/1999/xlink" version="1.1" width="237.9524" height="39" viewBox="0 0 237.9524 39" xml:space="preserve">
<desc>Created with Fabric.js 4.6.0</desc>
<defs>
</defs>
<g transform="matrix(1.01 0 0 1.01 118.62 19.85)" id="tXFN4S13HknUvgS5TKN8m"  >
<g style="" vector-effect="non-scaling-stroke"   >
		<g transform="matrix(0.78 0 0 0.13 0 0)" id="_ngV_6h-2mqQPh3tAYc-4"  >
<path style="stroke: none; stroke-width: 1; stroke-dasharray: none; stroke-linecap: butt; stroke-dashoffset: 0; stroke-linejoin: miter; stroke-miterlimit: 4; fill: rgb(0,0,0); fill-rule: nonzero; opacity: 1;" vector-effect="non-scaling-stroke"  transform=" translate(0, 0)" d="M -150 150 L -150 -150 L 150 -150 L 150 150 z" stroke-linecap="round" />
</g>
		<g transform="matrix(0.33 0 0 0.33 -102.66 0.68)" id="eZF2VsPGYnuybLOXO3aix"  >
<path style="stroke: none; stroke-width: 1; stroke-dasharray: none; stroke-linecap: butt; stroke-dashoffset: 0; stroke-linejoin: miter; stroke-miterlimit: 4; fill: rgb(213,35,73); fill-rule: nonzero; opacity: 1;" vector-effect="non-scaling-stroke"  transform=" translate(-50, -50)" d="M 74.351 46.201 C 74.351 46.064 74.33 45.94 74.312 45.816 C 74.33 45.691 74.348 45.565000000000005 74.347 45.428000000000004 C 74.309 35.199000000000005 65.94399999999999 29.314000000000004 56.157999999999994 27.591000000000005 C 56.696999999999996 26.305000000000003 56.02799999999999 24.348000000000006 54.166999999999994 24.163000000000004 C 53.24771209077348 24.0767650447258 52.32526527003571 24.02839079915366 51.40199999999998 24.018000000000008 C 52.190999999999995 22.050000000000004 53.517999999999994 20.455000000000005 55.815999999999995 19.784000000000006 C 58.78699999999999 18.918000000000006 62.05199999999999 21.371000000000006 65.223 20.616000000000007 C 72.225 18.952000000000005 73.178 12.003000000000007 71.087 6.1100000000000065 C 70.043 3.1630000000000065 65.325 4.434000000000006 66.382 7.407000000000006 C 67.757 11.290000000000006 67.747 16.623000000000005 62.098000000000006 15.786000000000005 C 59.37500000000001 15.381000000000006 57.321000000000005 14.637000000000004 54.519000000000005 15.076000000000004 C 50.127 15.761000000000005 47.336000000000006 20.019000000000005 46.24400000000001 24.076000000000004 C 45.63600000000001 24.086000000000006 45.02700000000001 24.098000000000003 44.418000000000006 24.093000000000004 C 42.290000000000006 24.075000000000003 41.72800000000001 26.466000000000005 42.70100000000001 27.782000000000004 C 33.787000000000006 29.620000000000005 26.311000000000007 34.931000000000004 25.68200000000001 43.58200000000001 C 25.57700000000001 44.318000000000005 25.512000000000008 45.23400000000001 25.50600000000001 46.382000000000005 L 25.65200000000001 77.18700000000001 C 25.65200000000001 77.47900000000001 25.70900000000001 77.73300000000002 25.790000000000013 77.96500000000002 C 25.882000000000012 101.45700000000002 74.58700000000002 101.71900000000002 74.495 77.00300000000001 L 74.351 46.201000000000015 z M 30.174 77.284 C 30.175 77.244 30.185 77.209 30.185 77.167 L 30.04 46.365 C 30.04 46.242000000000004 30.029 46.109 30.012999999999998 45.972 C 30.009999999999998 26.647000000000002 69.636 26.243000000000002 69.858 45.762 C 69.83010741210482 45.91175859684034 69.8153844945712 46.06367233684632 69.81400000000001 46.216 L 69.84400000000001 52.696 L 52.218 52.762 L 52.172000000000004 40.832 C 52.165000000000006 37.904 47.624 37.921 47.632000000000005 40.846000000000004 L 47.687000000000005 55.047000000000004 L 47.68900000000001 55.065000000000005 C 47.690000000000005 55.217000000000006 47.708000000000006 55.368 47.73500000000001 55.517 C 47.74400000000001 55.564 47.75800000000001 55.608000000000004 47.77 55.653000000000006 C 47.991 56.550000000000004 48.693000000000005 57.31 49.89 57.307 L 69.864 57.235 L 69.956 77.02 C 69.956 77.112 69.974 77.193 69.982 77.279 C 69.149 96.053 30.975 95.92599999999999 30.174 77.28399999999999 z" stroke-linecap="round" />
</g>
		<g transform="matrix(1.58 0 0 1.58 13.84 0.68)" id="qJRNITMCi5nez9A5gwj5f"  >
<path style="stroke: none; stroke-width: 1; stroke-dasharray: none; stroke-linecap: butt; stroke-dashoffset: 0; stroke-linejoin: miter; stroke-miterlimit: 4; fill: rgb(252,246,237); fill-rule: nonzero; opacity: 1;" vector-effect="non-scaling-stroke"  transform=" translate(-61.41, -8.44)" d="M 1.05 12.29 L 1.05 2.69 L 4.75 2.69 L 4.75 2.69 Q 7.01 2.69 8.25 3.88 L 8.25 3.88 L 8.25 3.88 Q 9.48 5.07 9.48 7.49 L 9.48 7.49 L 9.48 7.49 Q 9.48 9.91 8.25 11.1 L 8.25 11.1 L 8.25 11.1 Q 7.01 12.29 4.75 12.29 L 4.75 12.29 L 1.05 12.29 Z M 2.6 10.96 L 4.75 10.96 L 4.75 10.96 Q 6.27 10.96 7.08 10.14 L 7.08 10.14 L 7.08 10.14 Q 7.88 9.32 7.88 7.57 L 7.88 7.57 L 7.88 7.42 L 7.88 7.42 Q 7.88 5.66 7.08 4.84 L 7.08 4.84 L 7.08 4.84 Q 6.27 4.02 4.75 4.02 L 4.75 4.02 L 2.6 4.02 L 2.6 10.96 Z M 12.96 12.46 L 12.96 12.46 Q 12.05 12.46 11.32 12.01 L 11.32 12.01 L 11.32 12.01 Q 10.58 11.56 10.58 10.39 L 10.58 10.39 L 10.58 10.39 Q 10.58 8.97 11.82 8.43 L 11.82 8.43 L 11.82 8.43 Q 13.05 7.88 15.34 7.88 L 15.34 7.88 L 15.34 7.15 L 15.34 7.15 Q 15.34 6.55 15.03 6.24 L 15.03 6.24 L 15.03 6.24 Q 14.71 5.92 13.86 5.92 L 13.86 5.92 L 13.86 5.92 Q 13.03 5.92 12.69 6.22 L 12.69 6.22 L 12.69 6.22 Q 12.35 6.51 12.35 6.93 L 12.35 6.93 L 12.35 7.11 L 10.95 7.11 L 10.95 7.11 Q 10.93 7.03 10.93 6.8 L 10.93 6.8 L 10.93 6.8 Q 10.93 5.84 11.75 5.3 L 11.75 5.3 L 11.75 5.3 Q 12.56 4.76 13.92 4.76 L 13.92 4.76 L 13.92 4.76 Q 15.34 4.76 16.07 5.35 L 16.07 5.35 L 16.07 5.35 Q 16.79 5.94 16.79 7.01 L 16.79 7.01 L 16.79 10.78 L 16.79 10.78 Q 16.79 11.03 16.93 11.15 L 16.93 11.15 L 16.93 11.15 Q 17.07 11.27 17.28 11.27 L 17.28 11.27 L 17.78 11.27 L 17.78 12.24 L 17.78 12.24 Q 17.42 12.42 16.79 12.42 L 16.79 12.42 L 16.79 12.42 Q 16.28 12.42 15.94 12.14 L 15.94 12.14 L 15.94 12.14 Q 15.6 11.87 15.48 11.4 L 15.48 11.4 L 15.39 11.4 L 15.39 11.4 Q 14.99 11.9 14.39 12.18 L 14.39 12.18 L 14.39 12.18 Q 13.78 12.46 12.96 12.46 L 12.96 12.46 Z M 13.38 11.28 L 13.38 11.28 Q 14.21 11.28 14.78 10.79 L 14.78 10.79 L 14.78 10.79 Q 15.34 10.29 15.34 9.42 L 15.34 9.42 L 15.34 8.97 L 15.34 8.97 Q 13.75 8.97 12.91 9.25 L 12.91 9.25 L 12.91 9.25 Q 12.07 9.52 12.07 10.28 L 12.07 10.28 L 12.07 10.28 Q 12.07 10.79 12.4 11.04 L 12.4 11.04 L 12.4 11.04 Q 12.73 11.28 13.38 11.28 L 13.38 11.28 Z M 18.84 12.29 L 18.84 4.93 L 20.01 4.93 L 20.15 5.91 L 20.24 5.91 L 20.24 5.91 Q 20.64 5.35 21.26 5.05 L 21.26 5.05 L 21.26 5.05 Q 21.88 4.76 22.67 4.76 L 22.67 4.76 L 22.67 4.76 Q 25 4.76 25 7.29 L 25 7.29 L 25 12.29 L 23.56 12.29 L 23.56 7.48 L 23.56 7.48 Q 23.56 6.65 23.19 6.32 L 23.19 6.32 L 23.19 6.32 Q 22.82 5.99 22.11 5.99 L 22.11 5.99 L 22.11 5.99 Q 21.62 5.99 21.2 6.24 L 21.2 6.24 L 21.2 6.24 Q 20.78 6.48 20.53 6.93 L 20.53 6.93 L 20.53 6.93 Q 20.29 7.38 20.29 7.97 L 20.29 7.97 L 20.29 12.29 L 18.84 12.29 Z M 30.86 12.29 L 30.86 2.69 L 34.55 2.69 L 34.55 2.69 Q 36.82 2.69 38.05 3.88 L 38.05 3.88 L 38.05 3.88 Q 39.28 5.07 39.28 7.49 L 39.28 7.49 L 39.28 7.49 Q 39.28 9.91 38.05 11.1 L 38.05 11.1 L 38.05 11.1 Q 36.82 12.29 34.55 12.29 L 34.55 12.29 L 30.86 12.29 Z M 32.41 10.96 L 34.55 10.96 L 34.55 10.96 Q 36.08 10.96 36.88 10.14 L 36.88 10.14 L 36.88 10.14 Q 37.69 9.32 37.69 7.57 L 37.69 7.57 L 37.69 7.42 L 37.69 7.42 Q 37.69 5.66 36.88 4.84 L 36.88 4.84 L 36.88 4.84 Q 36.08 4.02 34.55 4.02 L 34.55 4.02 L 32.41 4.02 L 32.41 10.96 Z M 43.96 12.46 L 43.96 12.46 Q 42.18 12.46 41.31 11.52 L 41.31 11.52 L 41.31 11.52 Q 40.45 10.58 40.45 8.61 L 40.45 8.61 L 40.45 8.61 Q 40.45 6.64 41.31 5.7 L 41.31 5.7 L 41.31 5.7 Q 42.18 4.76 43.96 4.76 L 43.96 4.76 L 43.96 4.76 Q 45.57 4.76 46.37 5.63 L 46.37 5.63 L 46.37 5.63 Q 47.17 6.51 47.17 8.41 L 47.17 8.41 L 47.17 8.97 L 41.93 8.97 L 41.93 8.97 Q 41.99 10.16 42.47 10.73 L 42.47 10.73 L 42.47 10.73 Q 42.95 11.3 43.97 11.3 L 43.97 11.3 L 43.97 11.3 Q 44.77 11.3 45.26 10.92 L 45.26 10.92 L 45.26 10.92 Q 45.75 10.54 45.75 9.76 L 45.75 9.76 L 47.17 9.76 L 47.17 9.76 Q 47.17 11.07 46.28 11.77 L 46.28 11.77 L 46.28 11.77 Q 45.39 12.46 43.96 12.46 L 43.96 12.46 Z M 41.96 7.88 L 45.67 7.88 L 45.67 7.88 Q 45.67 5.92 43.96 5.92 L 43.96 5.92 L 43.96 5.92 Q 43.01 5.92 42.53 6.39 L 42.53 6.39 L 42.53 6.39 Q 42.06 6.86 41.96 7.88 L 41.96 7.88 Z M 50.58 12.29 L 47.87 4.93 L 49.38 4.93 L 50.64 8.46 L 50.64 8.46 Q 50.81 8.92 51.03 9.7 L 51.03 9.7 L 51.03 9.7 Q 51.25 10.49 51.32 10.74 L 51.32 10.74 L 51.39 10.74 L 51.39 10.74 Q 51.46 10.5 51.68 9.74 L 51.68 9.74 L 51.68 9.74 Q 51.9 8.97 52.08 8.46 L 52.08 8.46 L 53.33 4.93 L 54.77 4.93 L 52.05 12.29 L 50.58 12.29 Z M 58.98 12.46 L 58.98 12.46 Q 57.2 12.46 56.34 11.52 L 56.34 11.52 L 56.34 11.52 Q 55.47 10.58 55.47 8.61 L 55.47 8.61 L 55.47 8.61 Q 55.47 6.64 56.34 5.7 L 56.34 5.7 L 56.34 5.7 Q 57.2 4.76 58.98 4.76 L 58.98 4.76 L 58.98 4.76 Q 60.59 4.76 61.39 5.63 L 61.39 5.63 L 61.39 5.63 Q 62.19 6.51 62.19 8.41 L 62.19 8.41 L 62.19 8.97 L 56.95 8.97 L 56.95 8.97 Q 57.01 10.16 57.49 10.73 L 57.49 10.73 L 57.49 10.73 Q 57.97 11.3 59 11.3 L 59 11.3 L 59 11.3 Q 59.79 11.3 60.28 10.92 L 60.28 10.92 L 60.28 10.92 Q 60.77 10.54 60.77 9.76 L 60.77 9.76 L 62.19 9.76 L 62.19 9.76 Q 62.19 11.07 61.3 11.77 L 61.3 11.77 L 61.3 11.77 Q 60.41 12.46 58.98 12.46 L 58.98 12.46 Z M 56.98 7.88 L 60.69 7.88 L 60.69 7.88 Q 60.69 5.92 58.98 5.92 L 58.98 5.92 L 58.98 5.92 Q 58.03 5.92 57.55 6.39 L 57.55 6.39 L 57.55 6.39 Q 57.08 6.86 56.98 7.88 L 56.98 7.88 Z M 63.67 12.29 L 63.67 2.17 L 65.11 2.17 L 65.11 12.29 L 63.67 12.29 Z M 70.07 12.46 L 70.07 12.46 Q 68.32 12.46 67.45 11.52 L 67.45 11.52 L 67.45 11.52 Q 66.57 10.57 66.57 8.61 L 66.57 8.61 L 66.57 8.61 Q 66.57 6.65 67.45 5.71 L 67.45 5.71 L 67.45 5.71 Q 68.32 4.76 70.07 4.76 L 70.07 4.76 L 70.07 4.76 Q 71.82 4.76 72.7 5.71 L 72.7 5.71 L 72.7 5.71 Q 73.58 6.65 73.58 8.61 L 73.58 8.61 L 73.58 8.61 Q 73.58 10.57 72.7 11.52 L 72.7 11.52 L 72.7 11.52 Q 71.82 12.46 70.07 12.46 L 70.07 12.46 Z M 70.07 11.27 L 70.07 11.27 Q 71.13 11.27 71.62 10.65 L 71.62 10.65 L 71.62 10.65 Q 72.1 10.02 72.1 8.68 L 72.1 8.68 L 72.1 8.54 L 72.1 8.54 Q 72.1 7.2 71.62 6.57 L 71.62 6.57 L 71.62 6.57 Q 71.13 5.95 70.07 5.95 L 70.07 5.95 L 70.07 5.95 Q 69.02 5.95 68.54 6.57 L 68.54 6.57 L 68.54 6.57 Q 68.05 7.2 68.05 8.54 L 68.05 8.54 L 68.05 8.68 L 68.05 8.68 Q 68.05 10.02 68.54 10.65 L 68.54 10.65 L 68.54 10.65 Q 69.02 11.27 70.07 11.27 L 70.07 11.27 Z M 75.04 14.71 L 75.04 4.93 L 76.19 4.93 L 76.33 5.91 L 76.43 5.91 L 76.43 5.91 Q 76.78 5.35 77.37 5.05 L 77.37 5.05 L 77.37 5.05 Q 77.97 4.76 78.69 4.76 L 78.69 4.76 L 78.69 4.76 Q 80.09 4.76 80.85 5.71 L 80.85 5.71 L 80.85 5.71 Q 81.61 6.65 81.61 8.61 L 81.61 8.61 L 81.61 8.61 Q 81.61 10.54 80.85 11.5 L 80.85 11.5 L 80.85 11.5 Q 80.09 12.46 78.79 12.46 L 78.79 12.46 L 78.79 12.46 Q 77.27 12.46 76.57 11.45 L 76.57 11.45 L 76.48 11.45 L 76.48 14.71 L 75.04 14.71 Z M 78.29 11.24 L 78.29 11.24 Q 79.28 11.24 79.7 10.65 L 79.7 10.65 L 79.7 10.65 Q 80.12 10.07 80.12 8.69 L 80.12 8.69 L 80.12 8.57 L 80.12 8.57 Q 80.12 7.17 79.7 6.57 L 79.7 6.57 L 79.7 6.57 Q 79.28 5.98 78.29 5.98 L 78.29 5.98 L 78.29 5.98 Q 77.35 5.98 76.92 6.64 L 76.92 6.64 L 76.92 6.64 Q 76.48 7.29 76.48 8.57 L 76.48 8.57 L 76.48 8.68 L 76.48 8.68 Q 76.48 9.94 76.92 10.59 L 76.92 10.59 L 76.92 10.59 Q 77.35 11.24 78.29 11.24 L 78.29 11.24 Z M 85.71 12.46 L 85.71 12.46 Q 84.2 12.46 83.41 11.83 L 83.41 11.83 L 83.41 11.83 Q 82.61 11.2 82.61 10.25 L 82.61 10.25 L 82.61 10.25 Q 82.61 10.09 82.62 10.04 L 82.62 10.04 L 82.62 10.04 Q 82.63 10 82.63 9.98 L 82.63 9.98 L 84.04 9.98 L 84.04 10.11 L 84.04 10.11 Q 84.04 10.71 84.53 11.01 L 84.53 11.01 L 84.53 11.01 Q 85.02 11.31 85.78 11.31 L 85.78 11.31 L 85.78 11.31 Q 86.45 11.31 86.91 11.06 L 86.91 11.06 L 86.91 11.06 Q 87.36 10.81 87.36 10.35 L 87.36 10.35 L 87.36 10.35 Q 87.36 9.98 87.11 9.75 L 87.11 9.75 L 87.11 9.75 Q 86.86 9.52 86.49 9.39 L 86.49 9.39 L 86.49 9.39 Q 86.13 9.25 85.44 9.07 L 85.44 9.07 L 85.44 9.07 Q 84.6 8.86 84.07 8.65 L 84.07 8.65 L 84.07 8.65 Q 83.54 8.44 83.17 8.02 L 83.17 8.02 L 83.17 8.02 Q 82.8 7.6 82.8 6.9 L 82.8 6.9 L 82.8 6.9 Q 82.8 5.89 83.62 5.33 L 83.62 5.33 L 83.62 5.33 Q 84.45 4.76 85.82 4.76 L 85.82 4.76 L 85.82 4.76 Q 86.67 4.76 87.31 5.02 L 87.31 5.02 L 87.31 5.02 Q 87.95 5.28 88.29 5.74 L 88.29 5.74 L 88.29 5.74 Q 88.63 6.2 88.63 6.78 L 88.63 6.78 L 88.62 7.06 L 87.21 7.06 L 87.21 6.96 L 87.21 6.96 Q 87.21 6.5 86.84 6.21 L 86.84 6.21 L 86.84 6.21 Q 86.46 5.92 85.69 5.92 L 85.69 5.92 L 85.69 5.92 Q 84.95 5.92 84.61 6.18 L 84.61 6.18 L 84.61 6.18 Q 84.27 6.44 84.27 6.79 L 84.27 6.79 L 84.27 6.79 Q 84.27 7.22 84.69 7.43 L 84.69 7.43 L 84.69 7.43 Q 85.11 7.64 86.02 7.85 L 86.02 7.85 L 86.02 7.85 Q 86.9 8.06 87.46 8.28 L 87.46 8.28 L 87.46 8.28 Q 88.02 8.5 88.42 8.95 L 88.42 8.95 L 88.42 8.95 Q 88.83 9.41 88.83 10.16 L 88.83 10.16 L 88.83 10.16 Q 88.83 11.34 87.98 11.9 L 87.98 11.9 L 87.98 11.9 Q 87.14 12.46 85.71 12.46 L 85.71 12.46 Z M 96.05 12.29 L 93.35 2.69 L 94.99 2.69 L 96.75 9.2 L 96.75 9.2 Q 96.85 9.58 96.94 10.02 L 96.94 10.02 L 96.94 10.02 Q 97.03 10.46 97.08 10.63 L 97.08 10.63 L 97.15 10.63 L 97.41 9.2 L 98.87 2.69 L 100.94 2.69 L 102.44 9.2 L 102.44 9.2 Q 102.52 9.6 102.61 10.03 L 102.61 10.03 L 102.61 10.03 Q 102.69 10.46 102.72 10.63 L 102.72 10.63 L 102.79 10.63 L 102.79 10.63 Q 102.83 10.46 102.92 10.02 L 102.92 10.02 L 102.92 10.02 Q 103.01 9.58 103.11 9.2 L 103.11 9.2 L 104.85 2.69 L 106.34 2.69 L 103.64 12.29 L 101.7 12.29 L 100.16 5.74 L 100.16 5.74 Q 100.07 5.38 99.98 4.89 L 99.98 4.89 L 99.98 4.89 Q 99.89 4.4 99.86 4.24 L 99.86 4.24 L 99.79 4.24 L 99.79 4.24 Q 99.76 4.41 99.68 4.92 L 99.68 4.92 L 99.68 4.92 Q 99.6 5.43 99.53 5.74 L 99.53 5.74 L 98 12.29 L 96.05 12.29 Z M 110.5 12.46 L 110.5 12.46 Q 108.72 12.46 107.86 11.52 L 107.86 11.52 L 107.86 11.52 Q 106.99 10.58 106.99 8.61 L 106.99 8.61 L 106.99 8.61 Q 106.99 6.64 107.86 5.7 L 107.86 5.7 L 107.86 5.7 Q 108.72 4.76 110.5 4.76 L 110.5 4.76 L 110.5 4.76 Q 112.11 4.76 112.91 5.63 L 112.91 5.63 L 112.91 5.63 Q 113.71 6.51 113.71 8.41 L 113.71 8.41 L 113.71 8.97 L 108.47 8.97 L 108.47 8.97 Q 108.53 10.16 109.01 10.73 L 109.01 10.73 L 109.01 10.73 Q 109.49 11.3 110.52 11.3 L 110.52 11.3 L 110.52 11.3 Q 111.31 11.3 111.8 10.92 L 111.8 10.92 L 111.8 10.92 Q 112.29 10.54 112.29 9.76 L 112.29 9.76 L 113.71 9.76 L 113.71 9.76 Q 113.71 11.07 112.82 11.77 L 112.82 11.77 L 112.82 11.77 Q 111.93 12.46 110.5 12.46 L 110.5 12.46 Z M 108.5 7.88 L 112.21 7.88 L 112.21 7.88 Q 112.21 5.92 110.5 5.92 L 110.5 5.92 L 110.5 5.92 Q 109.55 5.92 109.07 6.39 L 109.07 6.39 L 109.07 6.39 Q 108.6 6.86 108.5 7.88 L 108.5 7.88 Z M 118.85 12.46 L 118.85 12.46 Q 118.12 12.46 117.52 12.17 L 117.52 12.17 L 117.52 12.17 Q 116.93 11.87 116.58 11.31 L 116.58 11.31 L 116.48 11.31 L 116.34 12.29 L 115.19 12.29 L 115.19 2.17 L 116.63 2.17 L 116.63 5.77 L 116.72 5.77 L 116.72 5.77 Q 117.42 4.76 118.94 4.76 L 118.94 4.76 L 118.94 4.76 Q 120.25 4.76 121 5.72 L 121 5.72 L 121 5.72 Q 121.76 6.68 121.76 8.61 L 121.76 8.61 L 121.76 8.61 Q 121.76 10.57 121 11.52 L 121 11.52 L 121 11.52 Q 120.25 12.46 118.85 12.46 L 118.85 12.46 Z M 118.44 11.24 L 118.44 11.24 Q 119.43 11.24 119.85 10.65 L 119.85 10.65 L 119.85 10.65 Q 120.27 10.07 120.27 8.69 L 120.27 8.69 L 120.27 8.57 L 120.27 8.57 Q 120.27 7.17 119.85 6.57 L 119.85 6.57 L 119.85 6.57 Q 119.43 5.98 118.44 5.98 L 118.44 5.98 L 118.44 5.98 Q 117.5 5.98 117.07 6.64 L 117.07 6.64 L 117.07 6.64 Q 116.63 7.29 116.63 8.58 L 116.63 8.58 L 116.63 8.69 L 116.63 8.69 Q 116.63 9.95 117.07 10.6 L 117.07 10.6 L 117.07 10.6 Q 117.5 11.24 118.44 11.24 L 118.44 11.24 Z" stroke-linecap="round" />
</g>
</g>
</g>
</svg>